<svg width="129" height="129" viewBox="0 0 129 129" fill="none" xmlns="http://www.w3.org/2000/svg">
  <path
    d="M50.5773 90.704C48.2193 92.7189 45.0688 93.7263 41.1259 93.7263C38.1109 93.7263 35.5209 93.0745 33.3562 91.7707C31.1528 90.6646 29.3746 89.2226 28.0218 87.4448C26.3596 85.5879 25.2579 83.1584 24.7167 80.1559C24.0982 77.1534 23.7889 71.4052 23.7889 62.9114C23.7889 54.4174 24.0982 48.6298 24.7167 45.5483C25.2579 42.6248 26.3596 40.2347 28.0218 38.3779C29.3746 36.6 31.1528 35.1186 33.3562 33.9334C35.5209 32.7877 38.1109 32.1753 41.1259 32.0963C44.1798 32.1753 46.8277 32.7877 49.0697 33.9334C51.1958 35.1186 52.8966 36.6 54.1722 38.3779C55.8344 40.2347 56.9748 42.6248 57.5933 45.5483C58.1731 48.6298 58.463 54.4174 58.463 62.9114C58.463 72.0373 58.0571 78.062 57.2454 80.9855L47.3882 72.9855L39.7924 81.9337L50.5773 90.704ZM61.0723 99.2967L71.7412 108.067L79.337 99.0597L68.2042 89.9929C69.3639 88.0176 70.195 85.2522 70.6976 81.6966C71.0841 78.1411 71.2774 71.8793 71.2774 62.9114C71.2774 52.8767 71.0261 46.1607 70.5236 42.7631C69.9824 39.3655 68.9967 36.6199 67.5664 34.526C65.595 30.5358 62.3866 26.9803 57.9411 23.8593C53.4571 20.6988 47.852 19.079 41.1259 19C34.4772 19.079 28.9301 20.6988 24.4847 23.8593C19.962 26.9803 16.6763 30.5358 14.6276 34.526C13.3519 36.6199 12.4049 39.3655 11.7864 42.7631C11.2066 46.1607 10.9166 52.8767 10.9166 62.9114C10.9166 72.7879 11.2066 79.4646 11.7864 82.9411C12.0956 84.7979 12.4822 86.3386 12.9461 87.5633C13.4486 88.7485 14.0091 89.9929 14.6276 91.2967C16.6763 95.2868 19.962 98.8028 24.4847 101.845C28.9301 105.005 34.4772 106.665 41.1259 106.823C49.437 106.665 56.0857 104.156 61.0723 99.2967Z"
    fill="#E651E9" />
  <path
    d="M56.5147 90.704C54.1568 92.7189 51.0063 93.7263 47.0634 93.7263C44.0484 93.7263 41.4584 93.0745 39.2937 91.7707C37.0903 90.6646 35.3121 89.2226 33.9593 87.4448C32.2971 85.5879 31.1954 83.1584 30.6542 80.1559C30.0357 77.1534 29.7264 71.4052 29.7264 62.9114C29.7264 54.4174 30.0357 48.6298 30.6542 45.5483C31.1954 42.6248 32.2971 40.2347 33.9593 38.3779C35.3121 36.6 37.0903 35.1186 39.2937 33.9334C41.4584 32.7877 44.0484 32.1753 47.0634 32.0963C50.1173 32.1753 52.7652 32.7877 55.0072 33.9334C57.1332 35.1186 58.8341 36.6 60.1097 38.3779C61.7719 40.2347 62.9123 42.6248 63.5308 45.5483C64.1106 48.6298 64.4005 54.4174 64.4005 62.9114C64.4005 72.0373 63.9946 78.062 63.1829 80.9855L53.3257 72.9855L45.7299 81.9337L56.5147 90.704ZM67.0098 99.2967L77.6787 108.067L85.2749 99.0597L74.1417 89.9929C75.3014 88.0176 76.1324 85.2522 76.6351 81.6966C77.0216 78.1411 77.2148 71.8793 77.2148 62.9114C77.2148 52.8767 76.9636 46.1607 76.4611 42.7631C75.9199 39.3655 74.9342 36.6199 73.5039 34.526C71.5325 30.5358 68.324 26.9803 63.8786 23.8593C59.3946 20.6988 53.7895 19.079 47.0634 19C40.4147 19.079 34.8676 20.6988 30.4222 23.8593C25.8995 26.9803 22.6138 30.5358 20.5651 34.526C19.2894 36.6199 18.3424 39.3655 17.7239 42.7631C17.1441 46.1607 16.8541 52.8767 16.8541 62.9114C16.8541 72.7879 17.1441 79.4646 17.7239 82.9411C18.0331 84.7979 18.4196 86.3386 18.8836 87.5633C19.3861 88.7485 19.9466 89.9929 20.5651 91.2967C22.6138 95.2868 25.8995 98.8028 30.4222 101.845C34.8676 105.005 40.4147 106.665 47.0634 106.823C55.3744 106.665 62.0232 104.156 67.0098 99.2967Z"
    fill="#15F6EA" />
  <path
    d="M53.546 90.704C51.188 92.7189 48.0376 93.7263 44.0947 93.7263C41.0796 93.7263 38.4897 93.0745 36.325 91.7707C34.1216 90.6646 32.3434 89.2226 30.9905 87.4448C29.3283 85.5879 28.2266 83.1584 27.6854 80.1559C27.0669 77.1534 26.7577 71.4052 26.7577 62.9114C26.7577 54.4174 27.0669 48.6298 27.6854 45.5483C28.2266 42.6248 29.3283 40.2347 30.9905 38.3779C32.3434 36.6 34.1216 35.1186 36.325 33.9334C38.4897 32.7877 41.0796 32.1753 44.0947 32.0963C47.1486 32.1753 49.7965 32.7877 52.0385 33.9334C54.1645 35.1186 55.8654 36.6 57.141 38.3779C58.8032 40.2347 59.9436 42.6248 60.5621 45.5483C61.1419 48.6298 61.4318 54.4174 61.4318 62.9114C61.4318 72.0373 61.0259 78.062 60.2141 80.9855L50.357 72.9855L42.7611 81.9337L53.546 90.704ZM64.041 99.2967L74.7099 108.067L82.3058 99.0597L71.173 89.9929C72.3327 88.0176 73.1637 85.2522 73.6663 81.6966C74.0529 78.1411 74.2461 71.8793 74.2461 62.9114C74.2461 52.8767 73.9949 46.1607 73.4923 42.7631C72.9511 39.3655 71.9654 36.6199 70.5352 34.526C68.5637 30.5358 65.3553 26.9803 60.9099 23.8593C56.4259 20.6988 50.8208 19.079 44.0947 19C37.446 19.079 31.8989 20.6988 27.4535 23.8593C22.9308 26.9803 19.6451 30.5358 17.5963 34.526C16.3207 36.6199 15.3736 39.3655 14.7551 42.7631C14.1753 46.1607 13.8854 52.8767 13.8854 62.9114C13.8854 72.7879 14.1753 79.4646 14.7551 82.9411C15.0644 84.7979 15.4509 86.3386 15.9148 87.5633C16.4173 88.7485 16.9778 89.9929 17.5963 91.2967C19.6451 95.2868 22.9308 98.8028 27.4535 101.845C31.8989 105.005 37.446 106.665 44.0947 106.823C52.4057 106.665 59.0544 104.156 64.041 99.2967Z"
    fill="white" />
  <path d="M69.3021 75.6364H91.0729V78.6704H69.3021V75.6364Z" fill="#FAFF00" />
  <path d="M6.95833 59.4545H13.8854V67.5454H6.95833V59.4545Z" fill="#E651E9" />
  <path d="M67.3229 37.2045H89.0937V42.2613H67.3229V37.2045Z" fill="#E651E9" />
  <path d="M66.3333 88.7841H98V96.875H66.3333V88.7841Z" fill="#15F6EA" />
  <path d="M20.8125 100.92H43.5729V105.977H20.8125V100.92Z" fill="#15F6EA" />
  <path d="M3 88.7841H24.7708V91.8181H3V88.7841Z" fill="#FAFF00" />
  <path d="M6.95833 27.0909H38.625V35.1818H6.95833V27.0909Z" fill="#FAFF00" />
  <rect x="98.0383" y="28" width="10.5921" height="42.3684" fill="#15F6EA" />
  <rect x="82.6316" y="54.9617" width="10.5921" height="42.3684"
    transform="rotate(-90 82.6316 54.9617)" fill="#15F6EA" />
  <rect x="94.4067" y="31.6316" width="10.5921" height="42.3684" fill="#E651E9" />
  <rect x="79" y="58.5933" width="10.5921" height="42.3684" transform="rotate(-90 79 58.5933)"
    fill="#E651E9" />
  <rect x="95.6172" y="29.2105" width="10.5921" height="42.3684" fill="white" />
  <rect x="80.2105" y="56.1723" width="10.5921" height="42.3684"
    transform="rotate(-90 80.2105 56.1723)" fill="white" />
</svg>